<?xml version="1.0" standalone="no"?>
<!DOCTYPE svg PUBLIC "-//W3C//DTD SVG 1.1//EN" "http://www.w3.org/Graphics/SVG/1.1/DTD/svg11.dtd" >
<svg xmlns="http://www.w3.org/2000/svg" xmlns:xlink="http://www.w3.org/1999/xlink" version="1.1">
<metadata></metadata>
<defs>
<font id="coolveticaregular" horiz-adv-x="376" >
<font-face units-per-em="2048" ascent="1434" descent="-614" />
<missing-glyph horiz-adv-x="505" />
<glyph unicode="&#x28;C&#x29;" horiz-adv-x="1363" d="M31 682q0 143 51 271t140 222.5t207 149.5t253 55t254 -55t207 -149.5t139 -222.5t51 -271q0 -145 -51 -272t-139 -222.5t-207 -150.5t-254 -55t-253 55t-207 150.5t-140 222.5t-51 272zM137 680q0 -123 43 -230.5t117 -187.5t174 -126t215 -46q113 0 213 46t175 126 t119 187.5t44 230.5q0 121 -44 228.5t-119 188.5t-175 128t-213 47q-115 0 -215 -47t-174 -128t-117 -188.5t-43 -228.5zM438 672q0 135 65.5 209.5t192.5 74.5q106 0 174 -54t74 -146h-145q-8 39 -36 60.5t-63 21.5q-51 0 -81.5 -42t-30.5 -108q0 -168 108 -168 q37 0 66 23.5t33 66.5h147q-10 -92 -80.5 -149.5t-171.5 -57.5q-123 0 -187.5 73t-64.5 196z" />
<glyph unicode="&#x28;R&#x29;" horiz-adv-x="915" d="M86 1012q0 82 30.5 153.5t84 124.5t124 84t152.5 31t153.5 -31t125 -84t84 -124.5t30.5 -153.5t-30.5 -153t-84 -124t-125 -83.5t-153.5 -30.5t-152.5 30.5t-124 83.5t-84 124t-30.5 153zM147 1012q0 -68 26 -128.5t71 -105.5t105.5 -70.5t127.5 -25.5q68 0 128.5 25.5 t105.5 70.5t70.5 105.5t25.5 128.5t-25.5 128t-70.5 105t-105.5 70.5t-128.5 25.5t-128 -25.5t-105 -70.5t-71 -105.5t-26 -127.5zM344 850v358h182q51 0 81 -29.5t30 -74.5q0 -29 -13.5 -50.5t-39.5 -31.5q25 -8 34 -23.5t9 -46.5v-102h-74v92q0 27 -11.5 38t-43.5 11h-80 v-141h-74zM418 1051h94q29 0 42 13t13 34q0 23 -12 36t-41 13h-96v-96z" />
<glyph horiz-adv-x="0" />
<glyph unicode="&#xd;" horiz-adv-x="0" />
<glyph horiz-adv-x="505" />
<glyph unicode=" "  horiz-adv-x="505" />
<glyph unicode="&#x09;" horiz-adv-x="505" />
<glyph unicode="&#xa0;" horiz-adv-x="505" />
<glyph unicode="!" horiz-adv-x="493" d="M96 1214q0 41 1 78t9 68h283q4 -35 6 -73t2 -79q0 -170 -19.5 -377.5t-60.5 -453.5h-141q-41 246 -60.5 454.5t-19.5 382.5zM106 0v268h277v-268h-277z" />
<glyph unicode="&#x22;" horiz-adv-x="540" d="M47 848v512h182v-512h-182zM317 848v512h182v-512h-182z" />
<glyph unicode="#" horiz-adv-x="1015" d="M18 387l19 174h182l31 238h-178l20 174h180l54 387h170l-52 -387h183l49 387h176l-51 -387h180l-25 -174h-178l-30 -238h180l-21 -174h-182l-51 -387h-178l55 387h-180l-49 -387h-175l50 387h-179zM391 561h182l31 238h-180z" />
<glyph unicode="$" horiz-adv-x="976" d="M29 408h245q8 -66 21.5 -109t35 -69.5t52.5 -40t76 -19.5v395q-102 27 -178 60.5t-126.5 80t-76 106.5t-25.5 144q0 80 31 151t85 124t128 84t162 33v90h84v-90q379 -12 397 -398h-242q-10 111 -48 151t-107 44v-352q137 -45 220 -88t127 -91.5t58.5 -105.5t14.5 -133 q0 -90 -30 -163t-85 -126t-133 -84t-172 -35v-80h-84v80q-115 10 -196 39t-133 82t-76.5 132t-24.5 188zM297 991q0 -61 42 -111.5t120 -60.5v326q-76 -4 -119 -49t-43 -105zM543 170q78 4 124 55t46 117q0 72 -46 121t-124 69v-362z" />
<glyph unicode="%" horiz-adv-x="1351" d="M37 1045q0 193 60.5 276.5t171.5 83.5t173 -84t62 -274t-62 -279.5t-173 -89.5t-171.5 87t-60.5 280zM137 -41l945 1442h139l-946 -1442h-138zM176 1042q0 -141 25 -198.5t72 -57.5q49 0 72.5 57.5t23.5 196.5q0 141 -23.5 199.5t-72.5 58.5q-47 0 -72 -57t-25 -199z M860 322q0 193 60.5 276.5t171.5 83.5t173 -84t62 -274t-62 -279.5t-173 -89.5t-171.5 87t-60.5 280zM999 319q0 -141 25 -198.5t72 -57.5q49 0 72.5 57.5t23.5 196.5q0 141 -23.5 199.5t-72.5 58.5q-47 0 -72 -57t-25 -199z" />
<glyph unicode="&#x26;" horiz-adv-x="1019" d="M37 379q0 47 12 97t33.5 93t52.5 76t66 49q-158 82 -158 285q0 86 37 155.5t104.5 120t161.5 78t209 27.5v-223q-139 0 -194.5 -44t-55.5 -145q0 -86 57.5 -127t192.5 -41v-192q-123 0 -190.5 -50.5t-67.5 -154.5q0 -43 13.5 -81t41 -66.5t69.5 -46t101 -17.5 q205 0 205 242v366h256v-366q0 -104 -34 -189.5t-94 -146t-144 -93t-187 -32.5q-117 0 -207 32.5t-152.5 90t-95 135.5t-32.5 168z" />
<glyph unicode="'" horiz-adv-x="270" d="M47 848v512h182v-512h-182z" />
<glyph unicode="(" horiz-adv-x="659" d="M137 616q0 236 80 460t248 415h194q-125 -209 -187 -429t-62 -450q0 -229 62.5 -457.5t186.5 -447.5h-194q-160 193 -244 428.5t-84 480.5z" />
<glyph unicode=")" horiz-adv-x="659" d="M16 -293q125 219 187.5 447.5t62.5 457.5t-62.5 449.5t-187.5 429.5h195q168 -190 248 -414.5t80 -460.5q0 -246 -84 -481t-244 -428h-195z" />
<glyph unicode="*" horiz-adv-x="1093" d="M66 905l67 207l293 -94v342h242v-342l293 94l73 -207l-303 -94l197 -279l-180 -129l-201 265l-195 -265l-184 129l197 279z" />
<glyph unicode="+" horiz-adv-x="1060" d="M47 606v193h385v385h193v-385h387v-193h-387v-387h-193v387h-385z" />
<glyph unicode="," d="M47 0v276h283v-208q0 -86 -14.5 -152t-47 -112t-87 -76.5t-134.5 -46.5v102q78 20 117 69.5t41 147.5h-158z" />
<glyph unicode="-" horiz-adv-x="561" d="M27 526v207h508v-207h-508z" />
<glyph unicode="." d="M47 0v276h285v-276h-285z" />
<glyph unicode="/" horiz-adv-x="602" d="M-10 0l389 1360h223l-393 -1360h-219z" />
<glyph unicode="0" horiz-adv-x="993" d="M35 686q0 190 30.5 326.5t90 223.5t145.5 128t197 41t197.5 -41t147 -127t93.5 -221t33 -326q0 -379 -126 -558t-345 -179q-111 0 -197 43t-145.5 132t-90 227.5t-30.5 330.5zM311 682q0 -141 12.5 -239.5t37 -160t60.5 -88t85 -26.5t85 27.5t59.5 88t35.5 158t12 236.5 q0 141 -12 239.5t-35.5 159t-59.5 88t-85 27.5t-85 -26.5t-60.5 -87t-37 -158t-12.5 -238.5z" />
<glyph unicode="1" horiz-adv-x="600" d="M8 940v184q88 0 147.5 14.5t97.5 44t57.5 73.5t25.5 104h217v-1360h-266v940h-279z" />
<glyph unicode="2" horiz-adv-x="942" d="M8 0q0 94 15.5 176t59.5 162t124 162t211 176q74 51 122 92t76.5 78t41 73.5t12.5 79.5q0 51 -14.5 86t-40 55.5t-60.5 29t-74 8.5q-92 0 -145 -52.5t-53 -189.5h-256q0 221 115.5 345t326.5 124q102 0 187 -24.5t145.5 -74t94.5 -124t34 -174.5q0 -78 -20.5 -141.5 t-66.5 -125t-122 -125t-184 -141.5q-78 -57 -131.5 -123.5t-57.5 -120.5h586v-231h-926z" />
<glyph unicode="3" horiz-adv-x="970" d="M27 399h256q0 -119 51 -173t151 -54q84 0 139.5 58.5t55.5 166.5q0 119 -68.5 166t-234.5 47v187q86 0 140 15t84 41t41 59.5t11 70.5q0 102 -42 155.5t-134 53.5q-78 0 -129 -58.5t-51 -164.5h-248q0 98 32 178t90 137t139 89t177 32q88 0 165 -26.5t134.5 -76t90 -118 t32.5 -150.5q0 -92 -40 -175t-119 -130q98 -41 150 -124t52 -212q0 -102 -34.5 -184t-98 -138.5t-151.5 -87t-195 -30.5q-213 0 -329.5 118.5t-116.5 327.5z" />
<glyph unicode="4" horiz-adv-x="964" d="M8 297v231l496 832h299v-856h153v-207h-153v-297h-266v297h-529zM264 504h279v479z" />
<glyph unicode="5" horiz-adv-x="993" d="M53 350h266q8 -86 57.5 -133t129.5 -47q111 0 157 69.5t46 186.5q0 106 -46.5 165.5t-140.5 59.5q-72 0 -117 -29.5t-73 -86.5h-275l29 825h838v-225h-600l-13 -365q53 57 124 76.5t147 19.5q82 0 154.5 -28.5t124.5 -83t83 -134t31 -182.5q0 -111 -35 -199.5t-96.5 -152 t-147.5 -98.5t-190 -35q-92 0 -173 29.5t-142.5 82t-97.5 125t-40 160.5z" />
<glyph unicode="6" horiz-adv-x="987" d="M31 635q0 205 31.5 350t94 238.5t158 137.5t222.5 44q166 0 269 -87t126 -253h-264q-10 127 -144 127q-111 0 -165 -105.5t-66 -324.5q47 55 111.5 91t166.5 36q80 0 151 -31t123 -89t81.5 -141t29.5 -190q0 -104 -32.5 -193t-91 -153.5t-141.5 -101.5t-183 -37 q-242 0 -359.5 172t-117.5 510zM297 430q0 -117 54.5 -189.5t152.5 -72.5q45 0 81 19.5t60.5 54t36.5 82t12 102.5q0 117 -53 185.5t-141 68.5q-90 0 -146.5 -68.5t-56.5 -181.5z" />
<glyph unicode="7" horiz-adv-x="968" d="M8 1124v236h953v-205q-229 -256 -352.5 -552t-139.5 -603h-274q12 147 46.5 294.5t95 291t143.5 279.5t192 259h-664z" />
<glyph unicode="8" horiz-adv-x="1003" d="M31 385q0 119 53 207t160 139q-84 43 -119 128t-35 171q0 80 31 148.5t86 119t131 79t166 28.5q100 0 177 -28.5t128 -78t76.5 -116t25.5 -144.5q0 -90 -31.5 -172t-109.5 -123q45 -20 83 -56t64.5 -81t41 -98t14.5 -111q0 -96 -29 -178t-87 -141.5t-146 -92t-207 -32.5 q-117 0 -206 33.5t-148.5 92t-89 137.5t-29.5 169zM309 397q0 -106 44.5 -165.5t148.5 -59.5t150 59.5t46 165.5q0 94 -47 153.5t-149 59.5t-147.5 -57t-45.5 -156zM336 1004q0 -80 41 -131.5t125 -51.5t125 51.5t41 131.5q0 84 -41 134t-125 50t-125 -50.5t-41 -133.5z" />
<glyph unicode="9" horiz-adv-x="987" d="M31 920q0 104 32.5 193t91 153.5t141.5 101.5t183 37q242 0 359.5 -172t117.5 -510q0 -205 -31.5 -350.5t-94 -238.5t-157.5 -137t-222 -44q-166 0 -269.5 87t-126.5 253h264q10 -127 144 -127q111 0 165 105.5t66 324.5q-47 -55 -111.5 -91t-166.5 -36 q-80 0 -150.5 30.5t-123 89t-82 141.5t-29.5 190zM293 932q0 -117 53 -185.5t141 -68.5q90 0 146.5 68.5t56.5 181.5q0 117 -54 189.5t-153 72.5q-47 0 -81.5 -19.5t-59.5 -54.5t-37 -82t-12 -102z" />
<glyph unicode=":" horiz-adv-x="344" d="M29 0v276h282v-276h-282zM29 694v275h282v-275h-282z" />
<glyph unicode=";" horiz-adv-x="315" d="M20 0v276h283v-208q0 -86 -14.5 -152t-47 -112t-87 -76.5t-134.5 -46.5v102q78 20 117 69.5t41 147.5h-158zM20 694v275h283v-275h-283z" />
<glyph unicode="&#x3c;" horiz-adv-x="1060" d="M47 606v193l965 409v-213l-748 -293l748 -292v-213z" />
<glyph unicode="=" horiz-adv-x="1060" d="M47 401v193h965v-193h-965zM47 811v193h965v-193h-965z" />
<glyph unicode="&#x3e;" horiz-adv-x="1060" d="M47 197v213l748 292l-748 293v213l965 -409v-193z" />
<glyph unicode="?" horiz-adv-x="995" d="M33 965q0 100 32.5 182t93 139t145.5 88t188 31q221 0 349 -90t128 -293q0 -66 -13.5 -115t-40 -89t-65.5 -74.5t-88 -71.5q-45 -35 -72.5 -64.5t-42 -62.5t-18.5 -69t-4 -81h-250q0 121 18.5 195t71.5 135q31 37 69.5 63.5t71.5 56t55.5 66.5t22.5 97q0 100 -55.5 140 t-130.5 40q-109 0 -150 -60.5t-51 -162.5h-264zM367 0v268h276v-268h-276z" />
<glyph unicode="@" horiz-adv-x="1449" d="M31 535q0 162 49 299t142 236t227.5 155.5t304.5 56.5q135 0 255.5 -32.5t212 -104.5t144.5 -184.5t53 -270.5q0 -133 -32.5 -234.5t-84 -170t-115 -103.5t-126.5 -35q-86 0 -131 32t-56 77q-33 -55 -89 -78.5t-128 -23.5q-80 0 -136 28.5t-92 75.5t-52.5 107.5 t-16.5 126.5q0 98 27 183t77 146.5t120.5 97t158.5 35.5q72 0 125.5 -31.5t75.5 -97.5l27 109h159l-106 -506q-12 -55 -12 -74q0 -20 15 -29.5t32 -9.5q35 0 71.5 22.5t67.5 67t50.5 111t19.5 154.5q0 127 -36 217t-103.5 146.5t-163 83t-213.5 26.5q-137 0 -243 -52.5 t-176.5 -136.5t-107.5 -191.5t-37 -217.5q0 -274 149.5 -417.5t420.5 -143.5q180 0 309 28.5t193 75.5l63 -119q-59 -51 -200.5 -95t-377.5 -44q-176 0 -309 52t-223 145.5t-136 223.5t-46 284zM535 492q0 -86 33.5 -131.5t119.5 -45.5q92 0 147.5 88.5t55.5 225.5 q0 84 -36 129t-105 45q-90 0 -152.5 -74t-62.5 -237z" />
<glyph unicode="A" horiz-adv-x="1306" d="M6 0l486 1360h329l479 -1360h-309l-86 281h-502l-96 -281h-301zM477 514h346l-170 541h-2z" />
<glyph unicode="B" horiz-adv-x="1167" d="M47 0v1360h670q201 0 305 -99.5t104 -271.5q0 -88 -47 -156.5t-118 -97.5q43 -16 80.5 -41.5t65.5 -65.5t44 -94.5t16 -127.5q0 -186 -124.5 -296t-383.5 -110h-612zM322 231h360q98 0 153.5 55.5t55.5 139.5q0 90 -54.5 131t-150.5 41h-364v-367zM322 829h358 q172 0 172 148q0 78 -44 112.5t-144 34.5h-342v-295z" />
<glyph unicode="C" horiz-adv-x="1245" d="M31 664q0 172 44 310t126 233.5t199.5 146.5t263.5 51q127 0 230 -38t178 -104.5t119 -156.5t54 -193h-284q-29 117 -111 181.5t-184 64.5q-178 0 -262.5 -128t-84.5 -351q0 -227 83 -353t249 -126q127 0 204 68.5t106 197.5h284q-23 -117 -72 -211t-123.5 -161.5 t-173 -104.5t-217.5 -37q-133 0 -248.5 45t-199.5 135t-132 222t-48 309z" />
<glyph unicode="D" horiz-adv-x="1232" d="M47 0v1360h526q137 0 254 -46t200 -132t130 -209t47 -279t-42 -283.5t-119.5 -219t-186 -141.5t-240.5 -50h-569zM324 231h235q186 0 270 116t84 347q0 115 -20.5 197t-66.5 134t-117.5 75.5t-173.5 23.5h-211v-893z" />
<glyph unicode="E" horiz-adv-x="1079" d="M47 0v1360h1000v-238h-723v-291h665v-239h-665v-350h755v-242h-1032z" />
<glyph unicode="F" horiz-adv-x="1024" d="M47 0v1360h969v-238h-684v-309h598v-240h-598v-573h-285z" />
<glyph unicode="G" horiz-adv-x="1349" d="M31 682q0 150 43 282t127 230t209 154.5t290 56.5q121 0 226.5 -35t184.5 -96.5t127 -146.5t56 -187h-286q-6 47 -33 89t-68 73t-95 49t-112 18q-172 0 -275 -128t-103 -371q0 -84 21.5 -169t67.5 -153.5t117.5 -111.5t169.5 -43q70 0 130.5 24.5t105.5 67.5t70.5 99 t25.5 120h-301v227h567v-731h-235l-6 135q-49 -86 -158 -134t-250 -48t-254.5 60.5t-194.5 161.5t-124 233.5t-43 273.5z" />
<glyph unicode="H" horiz-adv-x="1191" d="M47 0v1360h285v-512h530v512h287v-1360h-287v610h-530v-610h-285z" />
<glyph unicode="I" d="M47 0v1360h285v-1360h-285z" />
<glyph unicode="J" horiz-adv-x="919" d="M8 375v139h258v-125q0 -104 37 -154.5t125 -50.5q98 0 130 48.5t32 160.5v967h284v-993q0 -186 -112.5 -300t-333.5 -114q-199 0 -309.5 105.5t-110.5 316.5z" />
<glyph unicode="K" horiz-adv-x="1228" d="M47 0v1360h281v-553l520 553h369l-537 -537l549 -823h-346l-404 612l-151 -149v-463h-281z" />
<glyph unicode="L" horiz-adv-x="1015" d="M47 0v1360h285v-1112h674v-248h-959z" />
<glyph unicode="M" horiz-adv-x="1413" d="M47 0v1360h418l246 -998l245 998h410v-1360h-266v932l-254 -932h-283l-252 928v-928h-264z" />
<glyph unicode="N" horiz-adv-x="1200" d="M47 0v1360h301l541 -875v875h266v-1360h-262l-582 913v-913h-264z" />
<glyph unicode="O" horiz-adv-x="1363" d="M31 668q0 172 43 309t127 232.5t204.5 145.5t278.5 50q156 0 277.5 -50t203.5 -146.5t125 -234.5t43 -312q0 -352 -167 -530.5t-482 -178.5t-484 184.5t-169 530.5zM311 662q0 -242 97.5 -353.5t275.5 -111.5q76 0 143.5 27.5t117.5 84t79 144.5t29 209 q0 242 -94.5 366.5t-274.5 124.5t-276.5 -125t-96.5 -366z" />
<glyph unicode="P" horiz-adv-x="1083" d="M47 0v1360h600q100 0 180 -34t137.5 -94.5t88 -140t30.5 -171.5t-30.5 -171t-88 -135.5t-137 -88t-180.5 -31.5h-315v-494h-285zM332 725h270q123 0 177.5 56.5t54.5 146.5q0 86 -54.5 141t-177.5 55h-270v-399z" />
<glyph unicode="Q" horiz-adv-x="1363" d="M31 668q0 172 43 309t127 232.5t204.5 145.5t278.5 50q156 0 277.5 -50t203.5 -146.5t125 -234.5t43 -312q0 -123 -33.5 -236t-98 -203t-160 -151.5t-218.5 -79.5q0 -117 41 -169t107 -52q59 0 99 50t40 150h250q0 -98 -31 -180t-86 -141.5t-131 -93t-166 -33.5 q-84 0 -155.5 29.5t-123 84t-80 130t-28.5 165.5v43q-256 35 -392 208t-136 485zM311 662q0 -242 97.5 -353.5t275.5 -111.5q76 0 143.5 27.5t117.5 84t79 144.5t29 209q0 242 -94.5 366.5t-274.5 124.5t-276.5 -125t-96.5 -366z" />
<glyph unicode="R" horiz-adv-x="1173" d="M47 0v1360h690q94 0 171 -30t132.5 -82t85 -124.5t29.5 -156.5q0 -111 -52 -196t-151 -120q90 -29 128 -88t38 -178v-385h-278v350q0 98 -45 140t-168 42h-303v-532h-277zM324 762h356q115 0 162 51t47 129q0 80 -46 131t-153 51h-366v-362z" />
<glyph unicode="S" horiz-adv-x="1142" d="M12 408h275q2 -104 85 -165t208 -61q135 0 204.5 49.5t69.5 133.5q0 33 -8 60.5t-31.5 50t-64.5 39.5t-107 32q-156 33 -269.5 66.5t-187 84t-108.5 122t-35 181.5q0 84 30.5 158t94 128t157 86t220.5 32q123 0 221 -32t169 -90t109.5 -141t42.5 -184h-270 q-10 104 -75.5 155.5t-196.5 51.5q-242 0 -242 -166q0 -59 50 -99t161 -66q131 -31 227.5 -57.5t176.5 -61.5q45 -18 84.5 -46t67.5 -69t44 -98.5t16 -139.5q0 -98 -40.5 -173.5t-110.5 -128t-164 -80t-199 -27.5q-297 0 -446.5 114.5t-157.5 340.5z" />
<glyph unicode="T" horiz-adv-x="1124" d="M8 1122v238h1106v-238h-412v-1122h-284v1122h-410z" />
<glyph unicode="U" horiz-adv-x="1189" d="M47 436v924h289v-897q0 -127 63.5 -201t180.5 -74q272 0 272 265v907h291v-907q0 -248 -145.5 -374t-413.5 -126q-248 0 -392.5 118.5t-144.5 364.5z" />
<glyph unicode="V" horiz-adv-x="1204" d="M6 1360h303l297 -954l295 954h295l-461 -1360h-268z" />
<glyph unicode="W" horiz-adv-x="1744" d="M6 1360h303l223 -881l189 881h299l207 -881l221 881h291l-381 -1360h-275l-211 885l-215 -885h-266z" />
<glyph unicode="X" horiz-adv-x="1228" d="M8 0l441 694l-416 666h336l245 -440l248 440h330l-414 -653l443 -707h-347l-260 467l-274 -467h-332z" />
<glyph unicode="Y" horiz-adv-x="1222" d="M6 1360h332l287 -553l264 553h328l-455 -850v-510h-285v514z" />
<glyph unicode="Z" horiz-adv-x="1079" d="M8 0v242l707 880h-686v238h1042v-223l-711 -895h711v-242h-1063z" />
<glyph unicode="[" horiz-adv-x="643" d="M147 -266v1739h467v-183h-231v-1378h231v-178h-467z" />
<glyph unicode="\" horiz-adv-x="589" d="M-10 1360h223l389 -1360h-219z" />
<glyph unicode="]" horiz-adv-x="638" d="M20 -88h236v1378h-236v183h472v-1739h-472v178z" />
<glyph unicode="^" horiz-adv-x="929" d="M31 969l338 391h190l342 -391h-285l-149 178l-154 -178h-282z" />
<glyph unicode="_" horiz-adv-x="987" d="M0 -139h993v-119h-993v119z" />
<glyph unicode="`" horiz-adv-x="724" d="M102 1327l97 168l424 -248l-64 -112z" />
<glyph unicode="a" horiz-adv-x="985" d="M27 250q0 109 34.5 173t96 101t146.5 54.5t185 31.5t135 38t35 77q0 49 -46 76.5t-124 27.5q-92 0 -132 -40.5t-50 -108.5h-248q2 78 26 143.5t76 112.5t136 72.5t205 25.5q119 0 201.5 -26.5t133 -76.5t73 -125t22.5 -169v-637h-248q-12 39 -16 90q-47 -53 -125 -85 t-181 -32q-174 0 -254.5 77t-80.5 200zM293 276q0 -112 127 -112h2q51 0 95 17.5t76 47t51.5 69.5t19.5 85l2 111q-20 -20 -59.5 -32.5t-112.5 -27.5q-115 -23 -158 -57.5t-43 -100.5z" />
<glyph unicode="b" horiz-adv-x="1062" d="M53 0v1376h262v-499q112 157 297 157h2q98 0 175 -38t130.5 -107.5t81 -164.5t27.5 -210q0 -127 -32.5 -227.5t-90 -170t-138.5 -106.5t-175 -37q-188 0 -281 150l-2 -123h-256zM305 479q0 -129 64.5 -209t160.5 -80q100 0 164 85t64 221q0 311 -230 311 q-223 0 -223 -328z" />
<glyph unicode="c" horiz-adv-x="974" d="M35 516q0 135 33.5 233.5t95 161t148.5 93t194 30.5q98 0 179 -26.5t141.5 -77.5t95 -123t41.5 -160h-269q-10 78 -62 122t-128 44q-43 0 -80 -14.5t-64.5 -48t-44 -90t-16.5 -138.5q0 -166 59.5 -245.5t137.5 -79.5t133 43t63 125h269q-10 -88 -50.5 -160t-101.5 -123 t-140 -80t-171 -29q-102 0 -187.5 34t-147 102.5t-95 170t-33.5 236.5z" />
<glyph unicode="d" horiz-adv-x="1060" d="M33 514q0 115 27.5 210t81 164.5t130 107.5t174.5 38q186 0 299 -157v499h263v-1376h-256l-2 123q-92 -150 -281 -150q-96 0 -176 37t-137.5 106.5t-90 170t-32.5 227.5zM303 496q0 -135 63.5 -220.5t163.5 -85.5q96 0 161 80t65 209q0 328 -224 328q-229 0 -229 -311z " />
<glyph unicode="e" horiz-adv-x="1019" d="M31 522q0 117 32.5 211t95 162t152.5 103.5t207 35.5q233 0 353 -149.5t120 -450.5h-694q6 -115 66.5 -182.5t158.5 -67.5q66 0 116 30t64 83h275q-47 -156 -164 -240t-278 -84q-504 0 -504 549zM305 602h412q-2 55 -19.5 97t-46 70t-65.5 41t-76 13q-80 0 -138.5 -58 t-66.5 -163z" />
<glyph unicode="f" horiz-adv-x="591" d="M8 819v189h150q0 368 426 368h2v-215q-51 0 -83 -7t-50.5 -25.5t-25.5 -48t-7 -72.5h172v-189h-172v-819h-262v819h-150z" />
<glyph unicode="g" horiz-adv-x="1075" d="M33 -55h248q0 -92 60 -142.5t161 -50.5q106 0 180 58.5t74 158.5v166q-29 -68 -103.5 -105.5t-173.5 -37.5q-125 0 -210 44t-137 115.5t-75.5 166t-23.5 192.5q0 117 34.5 214t94 165.5t139.5 106.5t172 38q188 0 283 -151v125h266v-1018q0 -115 -39 -202t-106.5 -145.5 t-159.5 -89t-197 -30.5q-104 0 -194 29.5t-155 84t-101.5 132t-36.5 176.5zM309 496q0 -135 65 -215t163 -80t162.5 74.5t64.5 203.5q0 324 -227 324t-228 -307z" />
<glyph unicode="h" horiz-adv-x="1019" d="M53 0v1376h266v-499q14 33 44 62.5t69 50t86 32.5t98 12q156 0 253.5 -85t97.5 -236v-713h-269v625q0 115 -40 156.5t-132 41.5q-49 0 -88 -19.5t-65.5 -53t-40 -77.5t-13.5 -95v-578h-266z" />
<glyph unicode="i" horiz-adv-x="385" d="M59 0v1008h267v-1008h-267zM59 1128v248h267v-248h-267z" />
<glyph unicode="j" horiz-adv-x="374" d="M-481 -55h250q0 -86 31.5 -136.5t109.5 -50.5q80 0 111.5 49.5t31.5 135.5v1065h269v-1076q0 -92 -31 -166.5t-84 -129t-126 -84t-157 -29.5q-207 0 -306 113.5t-99 308.5zM53 1128v248h269v-248h-269z" />
<glyph unicode="k" horiz-adv-x="978" d="M53 0v1376h269v-751l331 383h326l-338 -371l330 -637h-299l-221 453l-129 -134v-319h-269z" />
<glyph unicode="l" horiz-adv-x="370" d="M53 0v1376h266v-1376h-266z" />
<glyph unicode="m" horiz-adv-x="1548" d="M53 0v1008h250v-148q51 100 123 137t172 37q51 0 91 -8t72 -27.5t60.5 -50t57.5 -74.5q41 84 108.5 122t163.5 38q76 0 139.5 -25.5t108.5 -71.5t70.5 -107.5t25.5 -131.5v-698h-260v610q0 92 -43 149.5t-115 57.5q-74 0 -122 -61.5t-48 -153.5v-602h-266v606 q0 61 -8 100t-27.5 62t-50.5 32t-74 9q-162 0 -162 -197v-612h-266z" />
<glyph unicode="n" horiz-adv-x="1019" d="M53 0v1008h254v-148q47 86 125 130t201 44q72 0 133 -21.5t105 -64.5t70 -105.5t26 -144.5v-698h-269v610q0 117 -38.5 158t-133.5 41q-207 0 -207 -231v-578h-266z" />
<glyph unicode="o" horiz-adv-x="1093" d="M31 504q0 119 35.5 217t103.5 167.5t163 107.5t216 38q119 0 213 -38t160.5 -106.5t102.5 -166.5t36 -219t-36 -218.5t-102.5 -167t-161.5 -107.5t-212 -38q-123 0 -219.5 39t-163 108.5t-101 168t-34.5 215.5zM305 504q0 -307 244 -307t244 307q0 305 -244 305 t-244 -305z" />
<glyph unicode="p" horiz-adv-x="1060" d="M53 -477v1485h256l2 -123q91 149 279 149h2q94 0 175 -36.5t138.5 -106.5t90 -170t32.5 -227q0 -115 -27.5 -210.5t-81 -165t-130 -107.5t-175.5 -38q-186 0 -299 158v-608h-262zM305 528q0 -327 223 -327q229 0 230 311q0 135 -63.5 220t-164.5 85q-96 0 -160.5 -80 t-64.5 -209z" />
<glyph unicode="q" horiz-adv-x="1060" d="M33 494q0 127 32.5 227t90 170t137.5 106.5t176 36.5q188 0 281 -149l2 123h256v-1067q0 -104 33.5 -143.5t97.5 -39.5q59 0 87.5 43t28.5 144h250q0 -98 -29.5 -176t-81 -132.5t-121 -84t-151.5 -29.5t-151.5 30.5t-120.5 86t-80 133t-29 170.5v182q-113 -152 -295 -152 q-98 0 -174.5 38t-130 107.5t-81 165t-27.5 210.5zM303 512q0 -311 229 -311q223 0 224 327q0 129 -64.5 209t-161.5 80q-100 0 -163.5 -85t-63.5 -220z" />
<glyph unicode="r" horiz-adv-x="645" d="M53 0v1008h250v-121q33 51 69 79.5t73.5 44t76.5 19.5t80 4h35v-272q-37 6 -74 6q-244 0 -244 -244v-524h-266z" />
<glyph unicode="s" horiz-adv-x="956" d="M18 324h275q0 -72 56.5 -111t146.5 -39q76 0 130 23.5t54 72.5q0 55 -40 80t-122 43q-147 33 -237.5 69t-140.5 79t-67.5 94t-17.5 115q0 57 23.5 108t75 90t133.5 62.5t200 23.5q217 0 317.5 -88t110.5 -244h-256q-10 70 -52 102t-128 32q-82 0 -124 -19.5t-42 -66.5 q0 -41 42 -66t122 -47q131 -37 221 -62.5t144.5 -60.5t78 -87t23.5 -140q0 -135 -112.5 -224.5t-333.5 -89.5q-109 0 -197 25t-150.5 71t-96.5 110.5t-36 144.5z" />
<glyph unicode="t" horiz-adv-x="915" d="M53 379v901h262v-272h557v-189h-557v-413q0 -96 36 -148.5t118 -52.5q80 0 118 51t38 145v263h247v-287q0 -80 -23.5 -152.5t-73.5 -129t-127 -89.5t-183 -33q-111 0 -188.5 33t-128 88.5t-73 129t-22.5 155.5z" />
<glyph unicode="u" horiz-adv-x="1013" d="M53 344v664h266v-623q0 -188 170 -188q102 0 154.5 64.5t52.5 164.5v582h265v-1008h-252v141q-102 -168 -314 -168q-76 0 -138 27t-107.5 76t-71 116.5t-25.5 151.5z" />
<glyph unicode="v" horiz-adv-x="1015" d="M6 1008h297l211 -666l213 666h281l-363 -1008h-278z" />
<glyph unicode="w" horiz-adv-x="1454" d="M6 1008h281l164 -648l139 648h270l158 -648l153 648h275l-289 -1008h-272l-160 586l-160 -586h-272z" />
<glyph unicode="x" horiz-adv-x="1005" d="M6 0l338 514l-328 494h322l170 -293l172 293h309l-334 -494l344 -514h-325l-176 303l-172 -303h-320z" />
<glyph unicode="y" horiz-adv-x="1013" d="M53 -55h248q0 -90 52.5 -141.5t156.5 -51.5q37 0 69.5 15.5t58.5 43t41 68.5t15 90v164q-29 -68 -103.5 -105.5t-168.5 -37.5q-80 0 -147.5 25.5t-116.5 73.5t-77 114.5t-28 150.5v654h266v-615q0 -188 170 -188q92 0 148.5 53t56.5 135v615h267v-1035q0 -106 -36 -190 t-98.5 -141.5t-147.5 -88t-181 -30.5q-223 0 -334 112.5t-111 309.5z" />
<glyph unicode="z" horiz-adv-x="901" d="M18 0v205l514 592h-479v211h819v-215l-514 -576h529v-217h-869z" />
<glyph unicode="{" horiz-adv-x="673" d="M61 516v176q96 0 132 48t36 167q0 14 -2 48t-3 71t-3 72t-2 53q0 82 12.5 143.5t50 101.5t106.5 59.5t179 19.5h76v-168h-45q-90 0 -122 -29t-32 -100q0 -92 6.5 -182.5t6.5 -182.5q0 -43 -18.5 -79t-48.5 -63.5t-69.5 -44t-82.5 -22.5q43 -6 82.5 -22.5t69.5 -44 t48.5 -63.5t18.5 -79q0 -92 -6.5 -183t-6.5 -183q0 -72 32 -100.5t122 -28.5h45v-168h-76q-111 0 -179.5 19.5t-106 59t-50 101t-12.5 143.5q0 18 2 53t3 74t3 73t2 48q0 119 -35.5 166t-132.5 47z" />
<glyph unicode="|" horiz-adv-x="684" d="M238 -256v1763h208v-1763h-208z" />
<glyph unicode="}" horiz-adv-x="665" d="M20 -100h46q90 0 121.5 28.5t31.5 100.5q0 92 -6 183t-6 183q0 43 18.5 79t48 63.5t69.5 44t83 22.5q-43 6 -83 22.5t-69.5 44t-48 63.5t-18.5 79q0 92 6 182t6 183q0 72 -31.5 100.5t-121.5 28.5h-46v168h76q111 0 179.5 -19.5t106.5 -59.5t50 -101.5t12 -143.5 q0 -18 -2 -53t-3 -72t-3 -70.5t-2 -48.5q0 -119 36 -167t132 -48v-176q-96 0 -132 -47t-36 -166q0 -14 2 -48t3 -73t3 -73.5t2 -53.5q0 -82 -12 -143.5t-50 -101t-106.5 -59t-179.5 -19.5h-76v168z" />
<glyph unicode="~" horiz-adv-x="1126" d="M51 451v206q45 53 110.5 95.5t160.5 42.5q74 0 136 -18.5t117.5 -40t106.5 -40t102 -18.5q86 0 157 33.5t134 119.5v-206q-66 -72 -137.5 -105t-165.5 -33q-61 0 -117.5 18.5t-111 41t-107.5 41t-106 18.5q-86 0 -151.5 -39t-127.5 -116z" />
<glyph unicode="&#xa1;" horiz-adv-x="493" d="M97 152q0 170 19.5 377.5t60.5 453.5h141q41 -246 60.5 -454.5t19.5 -382.5q0 -41 -1 -78t-9 -68h-283q-4 35 -6 73t-2 79zM111 1092v268h277v-268h-277z" />
<glyph unicode="&#xa2;" horiz-adv-x="974" d="M35 686q0 254 114.5 379t305.5 139v156h96v-156q178 -12 288.5 -114.5t123.5 -270.5h-269q-10 66 -48 107t-95 51v-606q57 14 96 56t45 108h269q-10 -80 -45 -149t-88.5 -119t-124 -81.5t-152.5 -40.5v-145h-96v143q-94 6 -172 44t-133.5 105.5t-85 166t-29.5 227.5z M299 692q0 -145 45 -224t111 -97v608q-68 -14 -112 -79.5t-44 -207.5z" />
<glyph unicode="&#xa3;" horiz-adv-x="976" d="M53 0v991q0 186 113 300t334 114q98 0 178 -19.5t135 -67.5t86 -128t31 -203v-158h-268v156q0 94 -31 140t-131 46q-51 0 -83 -11t-49.5 -33.5t-23.5 -57.5t-6 -82v-272h594v-168h-594v-299h594v-248h-879z" />
<glyph unicode="&#xa4;" horiz-adv-x="1097" d="M43 344l139 129q-31 49 -48 107.5t-17 121.5t17.5 121t47.5 109l-137 127l145 145l125 -135q51 33 109.5 50.5t124.5 17.5q63 0 121.5 -17.5t109.5 -50.5l125 135l146 -145l-136 -125q33 -51 50.5 -109.5t17.5 -122.5q0 -129 -68 -231l138 -127l-146 -147l-129 139 q-51 -31 -108.5 -48.5t-120.5 -17.5t-121.5 17.5t-108.5 48.5l-129 -139zM248 702q0 -63 23.5 -117.5t64.5 -95t95 -64.5t118 -24q63 0 118.5 24t96.5 64.5t64.5 95t23.5 117.5t-23.5 119t-64.5 96.5t-96.5 64.5t-118.5 24t-117.5 -24t-95.5 -64.5t-64.5 -96t-23.5 -119.5z " />
<glyph unicode="&#xa5;" horiz-adv-x="1083" d="M35 1360h239l267 -449l268 449h238l-394 -627v-135h297v-154h-297v-125h297v-155h-297v-164h-221v164h-297v155h297v125h-297v154h297v135z" />
<glyph unicode="&#xa6;" horiz-adv-x="684" d="M238 -256v842h208v-842h-208zM238 694v813h208v-813h-208z" />
<glyph unicode="&#xa7;" horiz-adv-x="1081" d="M51 90h232q2 -88 71.5 -139t173.5 -51q115 0 173.5 42t58.5 111q0 57 -34 94t-142 60q-133 29 -229.5 57.5t-158 70.5t-90 102.5t-28.5 152.5q0 68 23.5 127t70.5 104q-41 41 -60.5 93.5t-19.5 129.5q0 72 26.5 133.5t79 107.5t132.5 72.5t186 26.5q209 0 330 -102 t127 -274h-228q-10 90 -64 132t-165 42q-205 0 -205 -140q0 -49 42 -82.5t136 -56.5q111 -27 192 -49.5t148 -50.5q39 -16 72 -40t57.5 -57.5t38 -83t13.5 -116.5q0 -70 -24.5 -126t-67.5 -99q35 -35 55 -89.5t20 -140.5q0 -82 -34.5 -146.5t-93 -108.5t-137.5 -66.5 t-167 -22.5q-498 0 -510 383zM297 588q0 -49 42 -83t134 -56q70 -16 126.5 -30t105.5 -30q72 39 71 119q0 57 -33.5 94t-144.5 60q-55 10 -107.5 24t-97.5 29q-96 -31 -96 -127z" />
<glyph unicode="&#xa8;" horiz-adv-x="880" d="M102 1186v254h267v-254h-267zM512 1186v254h266v-254h-266z" />
<glyph unicode="&#xaa;" horiz-adv-x="665" d="M76 752q0 59 18.5 95t52 56.5t80.5 29.5t103 17q55 8 74.5 21.5t19.5 42.5q0 27 -25.5 42t-68.5 15q-49 0 -71.5 -22.5t-29.5 -59.5h-135q2 86 56.5 140.5t187.5 54.5t184 -57.5t51 -161.5v-351h-135q-8 25 -10 50q-27 -29 -69 -46.5t-99 -17.5q-94 0 -139 42t-45 110z M223 766q0 -61 70 -61q59 0 95 35.5t38 84.5l2 62q-18 -20 -52 -27.5t-68 -15.5t-59.5 -24.5t-25.5 -53.5z" />
<glyph unicode="&#xab;" horiz-adv-x="950" d="M27 649l292 357l130 -140l-193 -217l193 -215l-130 -137zM502 649l292 357l130 -140l-193 -217l193 -215l-130 -137z" />
<glyph unicode="&#xac;" horiz-adv-x="1196" d="M51 766v242h1092v-1008h-242v766h-850z" />
<glyph unicode="&#xad;" horiz-adv-x="561" d="M27 526v207h508v-207h-508z" />
<glyph unicode="&#xaf;" horiz-adv-x="985" d="M102 1233v186h781v-186h-781z" />
<glyph unicode="&#xb0;" horiz-adv-x="753" d="M66 1053q0 68 17 127t54 103t95.5 68.5t142.5 24.5q82 0 141 -24.5t97 -68.5t55.5 -103.5t17.5 -126.5q0 -68 -17.5 -127.5t-55.5 -103.5t-97 -69.5t-141 -25.5q-84 0 -142.5 25.5t-95.5 69.5t-54 103.5t-17 127.5zM205 1055q0 -82 39 -140.5t131 -58.5t131 58.5 t39 140.5t-39 139t-131 57t-131 -57t-39 -139z" />
<glyph unicode="&#xb1;" horiz-adv-x="1060" d="M47 -27v193h965v-193h-965zM47 606v193h385v385h193v-385h387v-193h-387v-387h-193v387h-385z" />
<glyph unicode="&#xb2;" horiz-adv-x="532" d="M35 703q0 47 7 88t29.5 80.5t62.5 80.5t106 88q72 53 98.5 86t26.5 76q0 51 -27 69.5t-68 18.5q-45 0 -71.5 -25.5t-26.5 -95.5h-129q0 111 58.5 173.5t162.5 62.5t168 -49t64 -150q0 -39 -10.5 -70.5t-34 -62.5t-60.5 -62.5t-92 -70.5q-41 -29 -66.5 -62.5t-27.5 -60.5 h293v-114h-463z" />
<glyph unicode="&#xb3;" horiz-adv-x="546" d="M43 901h129q0 -113 100 -112q41 0 70 29.5t29 82.5q0 59 -34 83t-118 24v92q86 0 111.5 27.5t25.5 66.5q0 104 -88 104q-39 0 -64.5 -29.5t-25.5 -82.5h-123q0 98 60.5 158.5t158.5 60.5q88 0 149.5 -51t61.5 -135q0 -47 -19.5 -88t-59.5 -64q47 -20 73.5 -61t26.5 -107 q0 -104 -65.5 -162.5t-174.5 -58.5q-106 0 -164.5 59.5t-58.5 163.5z" />
<glyph unicode="&#xb4;" horiz-adv-x="724" d="M102 1247l424 248l97 -168l-457 -192z" />
<glyph unicode="&#xb5;" horiz-adv-x="1013" d="M53 -477v1485h266v-623q0 -188 170 -188q102 0 154.5 64.5t52.5 164.5v582h265v-1008h-252v141q-102 -168 -314 -168q-20 0 -39.5 2t-36.5 7v-459h-266z" />
<glyph unicode="&#xb6;" horiz-adv-x="1179" d="M55 1171q0 49 19.5 91.5t61.5 74t105.5 50t151.5 18.5h762l-98 -186v-1424h-221v1426h-332v-1426h-223v1155q-127 18 -176.5 82t-49.5 139z" />
<glyph unicode="&#xb7;" d="M47 543v276h285v-276h-285z" />
<glyph unicode="&#xb8;" horiz-adv-x="440" d="M102 -88h236v-111q0 -55 -11.5 -103t-38 -85t-72.5 -60.5t-114 -29.5v88q127 10 131 133h-131v168z" />
<glyph unicode="&#xb9;" horiz-adv-x="360" d="M35 1172v92q88 0 123 29.5t41 88.5h108v-679h-133v469h-139z" />
<glyph unicode="&#xba;" horiz-adv-x="724" d="M78 891q0 133 76.5 213t207.5 80t207 -79t76 -214q0 -131 -76 -211t-207 -80q-135 0 -209.5 81t-74.5 210zM229 891q0 -168 133 -168q135 0 136 168q0 168 -136 168q-133 0 -133 -168z" />
<glyph unicode="&#xbb;" horiz-adv-x="950" d="M27 434l192 215l-192 217l129 140l293 -357l-293 -352zM502 434l192 215l-192 217l129 140l293 -357l-293 -352z" />
<glyph unicode="&#xbc;" horiz-adv-x="1243" d="M34 -41l945 1442h139l-946 -1442h-138zM76 1172v92q88 0 123 29.5t41 88.5h108v-679h-133v469h-139zM746 127v117l248 415h149v-428h76v-104h-76v-147h-133v147h-264zM873 231h139v240z" />
<glyph unicode="&#xbd;" horiz-adv-x="1232" d="M34 -41l945 1442h139l-946 -1442h-138zM76 1172v92q88 0 123 29.5t41 88.5h108v-679h-133v469h-139zM746 -20q0 47 7 88t29.5 80.5t62.5 80.5t106 88q72 53 98.5 86t26.5 76q0 51 -27 69.5t-68 18.5q-45 0 -71.5 -25.5t-26.5 -95.5h-129q0 111 58.5 173.5t162.5 62.5 t168 -49t64 -150q0 -39 -10.5 -70.5t-34 -62.5t-60.5 -62.5t-92 -70.5q-41 -29 -66.5 -62.5t-27.5 -60.5h293v-114h-463z" />
<glyph unicode="&#xbe;" horiz-adv-x="1298" d="M37 901h129q0 -113 100 -112q41 0 70 29.5t29 82.5q0 59 -34 83t-118 24v92q86 0 111.5 27.5t25.5 66.5q0 104 -88 104q-39 0 -64.5 -29.5t-25.5 -82.5h-123q0 98 60.5 158.5t158.5 60.5q88 0 149.5 -51t61.5 -135q0 -47 -19.5 -88t-59.5 -64q47 -20 73.5 -61t26.5 -107 q0 -104 -65.5 -162.5t-174.5 -58.5q-106 0 -164.5 59.5t-58.5 163.5zM131 -41l945 1442h139l-946 -1442h-138zM801 127v117l248 415h149v-428h76v-104h-76v-147h-133v147h-264zM928 231h139v240z" />
<glyph unicode="&#xbf;" horiz-adv-x="995" d="M24 338q0 66 13.5 115t40 89t65.5 74.5t88 71.5q45 35 72.5 64.5t42 62.5t18.5 69t4 81h250q0 -121 -18.5 -195t-71.5 -135q-31 -37 -69.5 -63.5t-71.5 -56t-55.5 -66.5t-22.5 -97q0 -100 55.5 -140t130.5 -40q109 0 150 60.5t51 162.5h264q0 -100 -32.5 -182t-93 -139 t-145.5 -88t-188 -31q-221 0 -349 90t-128 293zM350 1092v268h276v-268h-276z" />
<glyph unicode="&#xc0;" horiz-adv-x="1306" d="M6 0l486 1360h329l479 -1360h-309l-86 281h-502l-96 -281h-301zM331 1679l97 168l424 -248l-64 -112zM477 514h346l-170 541h-2z" />
<glyph unicode="&#xc1;" horiz-adv-x="1306" d="M6 0l486 1360h329l479 -1360h-309l-86 281h-502l-96 -281h-301zM454 1599l424 248l97 -168l-457 -192zM477 514h346l-170 541h-2z" />
<glyph unicode="&#xc2;" horiz-adv-x="1306" d="M6 0l486 1360h329l479 -1360h-309l-86 281h-502l-96 -281h-301zM282 1605l263 275h217l262 -275l-94 -104l-277 242l-276 -242zM477 514h346l-170 541h-2z" />
<glyph unicode="&#xc3;" horiz-adv-x="1306" d="M6 0l486 1360h329l479 -1360h-309l-86 281h-502l-96 -281h-301zM299 1609q33 100 84.5 140.5t114.5 40.5q47 0 84 -15.5t69.5 -34t61.5 -34t57 -15.5q18 0 45 21.5t37 75.5l154 -56q-35 -111 -96.5 -155.5t-126.5 -44.5q-39 0 -73 14t-64.5 31.5t-61.5 32t-63 14.5 q-12 0 -37 -16.5t-43 -73.5zM477 514h346l-170 541h-2z" />
<glyph unicode="&#xc4;" horiz-adv-x="1306" d="M6 0l486 1360h329l479 -1360h-309l-86 281h-502l-96 -281h-301zM315 1538v254h267v-254h-267zM477 514h346l-170 541h-2zM725 1538v254h266v-254h-266z" />
<glyph unicode="&#xc5;" horiz-adv-x="1306" d="M6 0l486 1360h329l479 -1360h-309l-86 281h-502l-96 -281h-301zM440 1683q0 94 52.5 145.5t160.5 51.5q115 0 164 -51.5t49 -145.5q0 -96 -49 -146t-164 -50q-213 0 -213 196zM477 514h346l-170 541h-2zM551 1683q0 -100 102 -100q107 0 107 100q0 104 -107 105 q-102 0 -102 -105z" />
<glyph unicode="&#xc6;" horiz-adv-x="1804" d="M6 0l486 1360h1280v-238h-723v-291h665v-239h-665v-350h755v-242h-1038v281h-363l-96 -281h-301zM477 514h289v608h-90z" />
<glyph unicode="&#xc7;" horiz-adv-x="1245" d="M31 664q0 172 44 310t126 233.5t199.5 146.5t263.5 51q127 0 230 -38t178 -104.5t119 -156.5t54 -193h-284q-29 117 -111 181.5t-184 64.5q-178 0 -262.5 -128t-84.5 -351q0 -227 83 -353t249 -126q127 0 204 68.5t106 197.5h284q-23 -117 -72 -211t-123.5 -161.5 t-173 -104.5t-217.5 -37q-133 0 -248.5 45t-199.5 135t-132 222t-48 309zM538 -88h236v-111q0 -55 -11.5 -103t-38 -85t-72.5 -60.5t-114 -29.5v88q127 10 131 133h-131v168z" />
<glyph unicode="&#xc8;" horiz-adv-x="1079" d="M47 0v1360h1000v-238h-723v-291h665v-239h-665v-350h755v-242h-1032zM217 1679l97 168l424 -248l-64 -112z" />
<glyph unicode="&#xc9;" horiz-adv-x="1079" d="M47 0v1360h1000v-238h-723v-291h665v-239h-665v-350h755v-242h-1032zM340 1599l424 248l97 -168l-457 -192z" />
<glyph unicode="&#xca;" horiz-adv-x="1079" d="M47 0v1360h1000v-238h-723v-291h665v-239h-665v-350h755v-242h-1032zM168 1605l263 275h217l262 -275l-94 -104l-277 242l-276 -242z" />
<glyph unicode="&#xcb;" horiz-adv-x="1079" d="M47 0v1360h1000v-238h-723v-291h665v-239h-665v-350h755v-242h-1032zM200 1538v254h267v-254h-267zM610 1538v254h266v-254h-266z" />
<glyph unicode="&#xcc;" d="M-131 1679l97 168l424 -248l-64 -112zM47 0v1360h285v-1360h-285z" />
<glyph unicode="&#xcd;" d="M-9 1599l424 248l97 -168l-457 -192zM47 0v1360h285v-1360h-285z" />
<glyph unicode="&#xce;" d="M-181 1605l263 275h217l262 -275l-94 -104l-277 242l-276 -242zM47 0v1360h285v-1360h-285z" />
<glyph unicode="&#xcf;" d="M-148 1538v254h267v-254h-267zM47 0v1360h285v-1360h-285zM262 1538v254h266v-254h-266z" />
<glyph unicode="&#xd0;" horiz-adv-x="1232" d="M0 578v202h47v580h526q137 0 254 -46t200 -132t130 -209t47 -279t-42 -283.5t-119.5 -219t-186 -141.5t-240.5 -50h-569v578h-47zM324 231h235q186 0 270 116t84 347q0 115 -20.5 197t-66.5 134t-117.5 75.5t-173.5 23.5h-211v-344h219v-202h-219v-347z" />
<glyph unicode="&#xd1;" horiz-adv-x="1200" d="M47 0v1360h301l541 -875v875h266v-1360h-262l-582 913v-913h-264zM245 1609q33 100 84.5 140.5t114.5 40.5q47 0 84 -15.5t69.5 -34t61.5 -34t57 -15.5q18 0 45 21.5t37 75.5l154 -56q-35 -111 -96.5 -155.5t-126.5 -44.5q-39 0 -73 14t-64.5 31.5t-61.5 32t-63 14.5 q-12 0 -37 -16.5t-43 -73.5z" />
<glyph unicode="&#xd2;" horiz-adv-x="1363" d="M31 668q0 172 43 309t127 232.5t204.5 145.5t278.5 50q156 0 277.5 -50t203.5 -146.5t125 -234.5t43 -312q0 -352 -167 -530.5t-482 -178.5t-484 184.5t-169 530.5zM311 662q0 -242 97.5 -353.5t275.5 -111.5q76 0 143.5 27.5t117.5 84t79 144.5t29 209 q0 242 -94.5 366.5t-274.5 124.5t-276.5 -125t-96.5 -366zM360 1679l97 168l424 -248l-64 -112z" />
<glyph unicode="&#xd3;" horiz-adv-x="1363" d="M31 668q0 172 43 309t127 232.5t204.5 145.5t278.5 50q156 0 277.5 -50t203.5 -146.5t125 -234.5t43 -312q0 -352 -167 -530.5t-482 -178.5t-484 184.5t-169 530.5zM311 662q0 -242 97.5 -353.5t275.5 -111.5q76 0 143.5 27.5t117.5 84t79 144.5t29 209 q0 242 -94.5 366.5t-274.5 124.5t-276.5 -125t-96.5 -366zM483 1599l424 248l97 -168l-457 -192z" />
<glyph unicode="&#xd4;" horiz-adv-x="1363" d="M31 668q0 172 43 309t127 232.5t204.5 145.5t278.5 50q156 0 277.5 -50t203.5 -146.5t125 -234.5t43 -312q0 -352 -167 -530.5t-482 -178.5t-484 184.5t-169 530.5zM311 662q0 -242 97.5 -353.5t275.5 -111.5q76 0 143.5 27.5t117.5 84t79 144.5t29 209 q0 242 -94.5 366.5t-274.5 124.5t-276.5 -125t-96.5 -366zM311 1605l263 275h217l262 -275l-94 -104l-277 242l-276 -242z" />
<glyph unicode="&#xd5;" horiz-adv-x="1363" d="M31 668q0 172 43 309t127 232.5t204.5 145.5t278.5 50q156 0 277.5 -50t203.5 -146.5t125 -234.5t43 -312q0 -352 -167 -530.5t-482 -178.5t-484 184.5t-169 530.5zM311 662q0 -242 97.5 -353.5t275.5 -111.5q76 0 143.5 27.5t117.5 84t79 144.5t29 209 q0 242 -94.5 366.5t-274.5 124.5t-276.5 -125t-96.5 -366zM327 1609q33 100 84.5 140.5t114.5 40.5q47 0 84 -15.5t69.5 -34t61.5 -34t57 -15.5q18 0 45 21.5t37 75.5l154 -56q-35 -111 -96.5 -155.5t-126.5 -44.5q-39 0 -73 14t-64.5 31.5t-61.5 32t-63 14.5 q-12 0 -37 -16.5t-43 -73.5z" />
<glyph unicode="&#xd6;" horiz-adv-x="1363" d="M31 668q0 172 43 309t127 232.5t204.5 145.5t278.5 50q156 0 277.5 -50t203.5 -146.5t125 -234.5t43 -312q0 -352 -167 -530.5t-482 -178.5t-484 184.5t-169 530.5zM311 662q0 -242 97.5 -353.5t275.5 -111.5q76 0 143.5 27.5t117.5 84t79 144.5t29 209 q0 242 -94.5 366.5t-274.5 124.5t-276.5 -125t-96.5 -366zM344 1538v254h267v-254h-267zM754 1538v254h266v-254h-266z" />
<glyph unicode="&#xd7;" horiz-adv-x="1060" d="M119 430l272 272l-272 273l135 135l272 -272l275 274l135 -137l-272 -273l272 -274l-135 -135l-275 272l-272 -272z" />
<glyph unicode="&#xd8;" horiz-adv-x="1363" d="M31 668q0 172 43 309t127 232.5t204.5 145.5t278.5 50q68 0 128 -10.5t116 -28.5l49 98l151 -55l-57 -115q129 -92 195.5 -251.5t66.5 -380.5q0 -352 -167 -530.5t-482 -178.5q-78 0 -145.5 11t-126.5 34l-41 -82l-144 55l49 99q-121 90 -183 239.5t-62 358.5zM311 662 q0 -227 90 -343l410 814q-29 10 -60.5 15t-66.5 5q-180 0 -276.5 -125t-96.5 -366zM526 223q66 -27 158 -26q76 0 143.5 27.5t117.5 84t79 144.5t29 209q0 258 -109 382z" />
<glyph unicode="&#xd9;" horiz-adv-x="1189" d="M47 436v924h289v-897q0 -127 63.5 -201t180.5 -74q272 0 272 265v907h291v-907q0 -248 -145.5 -374t-413.5 -126q-248 0 -392.5 118.5t-144.5 364.5zM272 1679l97 168l424 -248l-64 -112z" />
<glyph unicode="&#xda;" horiz-adv-x="1189" d="M47 436v924h289v-897q0 -127 63.5 -201t180.5 -74q272 0 272 265v907h291v-907q0 -248 -145.5 -374t-413.5 -126q-248 0 -392.5 118.5t-144.5 364.5zM395 1599l424 248l97 -168l-457 -192z" />
<glyph unicode="&#xdb;" horiz-adv-x="1189" d="M47 436v924h289v-897q0 -127 63.5 -201t180.5 -74q272 0 272 265v907h291v-907q0 -248 -145.5 -374t-413.5 -126q-248 0 -392.5 118.5t-144.5 364.5zM223 1605l263 275h217l262 -275l-94 -104l-277 242l-276 -242z" />
<glyph unicode="&#xdc;" horiz-adv-x="1189" d="M47 436v924h289v-897q0 -127 63.5 -201t180.5 -74q272 0 272 265v907h291v-907q0 -248 -145.5 -374t-413.5 -126q-248 0 -392.5 118.5t-144.5 364.5zM256 1538v254h267v-254h-267zM666 1538v254h266v-254h-266z" />
<glyph unicode="&#xdd;" horiz-adv-x="1222" d="M6 1360h332l287 -553l264 553h328l-455 -850v-510h-285v514zM421 1599l424 248l97 -168l-457 -192z" />
<glyph unicode="&#xde;" horiz-adv-x="1083" d="M47 0v1360h285v-211h342q90 0 164.5 -35t129 -94t85 -139t30.5 -172t-30.5 -171t-86 -136.5t-132 -89t-170.5 -31.5h-332v-281h-285zM332 514h270q100 0 166 56.5t66 144.5q0 86 -62.5 141t-169.5 55h-270v-397z" />
<glyph unicode="&#xdf;" horiz-adv-x="1034" d="M53 0v1020q0 82 28 150.5t84 117.5t140 76t199 27q113 0 194.5 -27t136 -74t80 -112.5t25.5 -143.5q0 -57 -11 -98t-30.5 -69.5t-44.5 -49t-51 -37.5q66 -29 107.5 -66.5t65 -80.5t33 -93.5t9.5 -103.5q0 -109 -32 -193.5t-91 -145t-143 -92.5t-189 -32q-78 0 -117 9v215 q14 -2 28.5 -3t29.5 -1q117 0 184.5 64.5t67.5 164.5q0 68 -21.5 114t-59.5 73.5t-92.5 41t-119.5 15.5v168q63 2 103 15t63.5 35.5t33 53.5t9.5 68q0 96 -53.5 134t-124.5 38q-74 0 -126.5 -41t-52.5 -131v-1006h-262z" />
<glyph unicode="&#xe0;" horiz-adv-x="985" d="M27 250q0 109 34.5 173t96 101t146.5 54.5t185 31.5t135 38t35 77q0 49 -46 76.5t-124 27.5q-92 0 -132 -40.5t-50 -108.5h-248q2 78 26 143.5t76 112.5t136 72.5t205 25.5q119 0 201.5 -26.5t133 -76.5t73 -125t22.5 -169v-637h-248q-12 39 -16 90q-47 -53 -125 -85 t-181 -32q-174 0 -254.5 77t-80.5 200zM170 1327l97 168l424 -248l-64 -112zM293 276q0 -113 129 -112q51 0 95 17.5t76 47t51.5 69.5t19.5 85l2 111q-20 -20 -59.5 -32.5t-112.5 -27.5q-115 -23 -158 -57.5t-43 -100.5z" />
<glyph unicode="&#xe1;" horiz-adv-x="985" d="M27 250q0 109 34.5 173t96 101t146.5 54.5t185 31.5t135 38t35 77q0 49 -46 76.5t-124 27.5q-92 0 -132 -40.5t-50 -108.5h-248q2 78 26 143.5t76 112.5t136 72.5t205 25.5q119 0 201.5 -26.5t133 -76.5t73 -125t22.5 -169v-637h-248q-12 39 -16 90q-47 -53 -125 -85 t-181 -32q-174 0 -254.5 77t-80.5 200zM292 1247l424 248l97 -168l-457 -192zM293 276q0 -113 129 -112q51 0 95 17.5t76 47t51.5 69.5t19.5 85l2 111q-20 -20 -59.5 -32.5t-112.5 -27.5q-115 -23 -158 -57.5t-43 -100.5z" />
<glyph unicode="&#xe2;" horiz-adv-x="985" d="M27 250q0 109 34.5 173t96 101t146.5 54.5t185 31.5t135 38t35 77q0 49 -46 76.5t-124 27.5q-92 0 -132 -40.5t-50 -108.5h-248q2 78 26 143.5t76 112.5t136 72.5t205 25.5q119 0 201.5 -26.5t133 -76.5t73 -125t22.5 -169v-637h-248q-12 39 -16 90q-47 -53 -125 -85 t-181 -32q-174 0 -254.5 77t-80.5 200zM120 1253l263 275h217l262 -275l-94 -104l-277 242l-276 -242zM293 276q0 -113 129 -112q51 0 95 17.5t76 47t51.5 69.5t19.5 85l2 111q-20 -20 -59.5 -32.5t-112.5 -27.5q-115 -23 -158 -57.5t-43 -100.5z" />
<glyph unicode="&#xe3;" horiz-adv-x="985" d="M27 250q0 109 34.5 173t96 101t146.5 54.5t185 31.5t135 38t35 77q0 49 -46 76.5t-124 27.5q-92 0 -132 -40.5t-50 -108.5h-248q2 78 26 143.5t76 112.5t136 72.5t205 25.5q119 0 201.5 -26.5t133 -76.5t73 -125t22.5 -169v-637h-248q-12 39 -16 90q-47 -53 -125 -85 t-181 -32q-174 0 -254.5 77t-80.5 200zM139 1257q33 100 84.5 140.5t114.5 40.5q47 0 84 -15.5t69.5 -34t61.5 -34t57 -15.5q18 0 45 21.5t37 75.5l154 -56q-35 -111 -96.5 -155.5t-126.5 -44.5q-39 0 -73 14t-64.5 31.5t-61.5 32t-63 14.5q-12 0 -37 -16.5t-43 -73.5z M293 276q0 -113 129 -112q51 0 95 17.5t76 47t51.5 69.5t19.5 85l2 111q-20 -20 -59.5 -32.5t-112.5 -27.5q-115 -23 -158 -57.5t-43 -100.5z" />
<glyph unicode="&#xe4;" horiz-adv-x="985" d="M27 250q0 109 34.5 173t96 101t146.5 54.5t185 31.5t135 38t35 77q0 49 -46 76.5t-124 27.5q-92 0 -132 -40.5t-50 -108.5h-248q2 78 26 143.5t76 112.5t136 72.5t205 25.5q119 0 201.5 -26.5t133 -76.5t73 -125t22.5 -169v-637h-248q-12 39 -16 90q-47 -53 -125 -85 t-181 -32q-174 0 -254.5 77t-80.5 200zM153 1186v254h267v-254h-267zM293 276q0 -113 129 -112q51 0 95 17.5t76 47t51.5 69.5t19.5 85l2 111q-20 -20 -59.5 -32.5t-112.5 -27.5q-115 -23 -158 -57.5t-43 -100.5zM563 1186v254h266v-254h-266z" />
<glyph unicode="&#xe5;" horiz-adv-x="985" d="M27 250q0 109 34.5 173t96 101t146.5 54.5t185 31.5t135 38t35 77q0 49 -46 76.5t-124 27.5q-92 0 -132 -40.5t-50 -108.5h-248q2 78 26 143.5t76 112.5t136 72.5t205 25.5q119 0 201.5 -26.5t133 -76.5t73 -125t22.5 -169v-637h-248q-12 39 -16 90q-47 -53 -125 -85 t-181 -32q-174 0 -254.5 77t-80.5 200zM278 1331q0 94 52.5 145.5t160.5 51.5q115 0 164 -51.5t49 -145.5q0 -96 -49 -146t-164 -50q-213 0 -213 196zM293 276q0 -113 129 -112q51 0 95 17.5t76 47t51.5 69.5t19.5 85l2 111q-20 -20 -59.5 -32.5t-112.5 -27.5 q-115 -23 -158 -57.5t-43 -100.5zM389 1331q0 -100 102 -100q107 0 107 100q0 104 -107 105q-102 0 -102 -105z" />
<glyph unicode="&#xe6;" horiz-adv-x="1650" d="M27 250q0 109 34.5 173t96 101t146.5 54.5t185 31.5t135 38t35 77q0 49 -46 76.5t-124 27.5q-92 0 -132 -40.5t-50 -108.5h-248q2 78 26 143.5t76 112.5t136 72.5t205 25.5q119 0 199.5 -25.5t132.5 -76.5q127 102 319 102q233 0 353 -149.5t120 -450.5h-694 q6 -115 66.5 -182.5t158.5 -67.5q66 0 116 30t64 83h275q-47 -156 -164 -240t-279 -84q-115 0 -222 37t-183 133q-74 -86 -169 -128t-233 -42q-174 0 -254.5 77t-80.5 200zM293 276q0 -113 129 -112q51 0 95 17.5t76 47t51.5 69.5t19.5 85l2 111q-20 -20 -59.5 -32.5 t-112.5 -27.5q-115 -23 -158 -57.5t-43 -100.5zM940 602h412q-2 55 -19.5 97t-46.5 70t-65.5 41t-75.5 13q-80 0 -138.5 -58t-66.5 -163z" />
<glyph unicode="&#xe7;" horiz-adv-x="974" d="M35 516q0 135 33.5 233.5t95 161t148.5 93t194 30.5q98 0 179 -26.5t141.5 -77.5t95 -123t41.5 -160h-269q-10 78 -62 122t-128 44q-43 0 -80 -14.5t-64.5 -48t-44 -90t-16.5 -138.5q0 -166 59.5 -245.5t137.5 -79.5t133 43t63 125h269q-10 -88 -50.5 -160t-101.5 -123 t-140 -80t-171 -29q-102 0 -187.5 34t-147 102.5t-95 170t-33.5 236.5zM397 -88h236v-111q0 -55 -11.5 -103t-38 -85t-72.5 -60.5t-114 -29.5v88q127 10 131 133h-131v168z" />
<glyph unicode="&#xe8;" horiz-adv-x="1019" d="M31 522q0 117 32.5 211t95 162t152.5 103.5t207 35.5q233 0 353 -149.5t120 -450.5h-694q6 -115 66.5 -182.5t158.5 -67.5q66 0 116 30t64 83h275q-47 -156 -164 -240t-278 -84q-504 0 -504 549zM188 1327l97 168l424 -248l-64 -112zM305 602h412q-2 55 -19.5 97t-46 70 t-65.5 41t-76 13q-80 0 -138.5 -58t-66.5 -163z" />
<glyph unicode="&#xe9;" horiz-adv-x="1019" d="M31 522q0 117 32.5 211t95 162t152.5 103.5t207 35.5q233 0 353 -149.5t120 -450.5h-694q6 -115 66.5 -182.5t158.5 -67.5q66 0 116 30t64 83h275q-47 -156 -164 -240t-278 -84q-504 0 -504 549zM305 602h412q-2 55 -19.5 97t-46 70t-65.5 41t-76 13q-80 0 -138.5 -58 t-66.5 -163zM311 1247l424 248l97 -168l-457 -192z" />
<glyph unicode="&#xea;" horiz-adv-x="1019" d="M31 522q0 117 32.5 211t95 162t152.5 103.5t207 35.5q233 0 353 -149.5t120 -450.5h-694q6 -115 66.5 -182.5t158.5 -67.5q66 0 116 30t64 83h275q-47 -156 -164 -240t-278 -84q-504 0 -504 549zM139 1253l263 275h217l262 -275l-94 -104l-277 242l-276 -242zM305 602 h412q-2 55 -19.5 97t-46 70t-65.5 41t-76 13q-80 0 -138.5 -58t-66.5 -163z" />
<glyph unicode="&#xeb;" horiz-adv-x="1019" d="M31 522q0 117 32.5 211t95 162t152.5 103.5t207 35.5q233 0 353 -149.5t120 -450.5h-694q6 -115 66.5 -182.5t158.5 -67.5q66 0 116 30t64 83h275q-47 -156 -164 -240t-278 -84q-504 0 -504 549zM172 1186v254h267v-254h-267zM305 602h412q-2 55 -19.5 97t-46 70 t-65.5 41t-76 13q-80 0 -138.5 -58t-66.5 -163zM582 1186v254h266v-254h-266z" />
<glyph unicode="&#xec;" horiz-adv-x="385" d="M-127 1327l97 168l424 -248l-64 -112zM59 0v1008h267v-1008h-267z" />
<glyph unicode="&#xed;" horiz-adv-x="385" d="M-4 1247l424 248l97 -168l-457 -192zM59 0v1008h267v-1008h-267z" />
<glyph unicode="&#xee;" horiz-adv-x="385" d="M-177 1253l263 275h217l262 -275l-94 -104l-277 242l-276 -242zM59 0v1008h267v-1008h-267z" />
<glyph unicode="&#xef;" horiz-adv-x="385" d="M-144 1186v254h267v-254h-267zM59 0v1008h267v-1008h-267zM266 1186v254h266v-254h-266z" />
<glyph unicode="&#xf0;" horiz-adv-x="1052" d="M31 494q0 109 29.5 199.5t86 156t138.5 102.5t188 37q37 0 74 -3t71.5 -13t65.5 -34t59 -62q-8 74 -35.5 144.5t-68.5 131.5l-170 -98l-37 57l166 96q-45 53 -95 96.5t-100 71.5h285q43 -27 86 -65l139 80l37 -58l-127 -73q92 -113 138.5 -284t46.5 -394q0 -176 -42 -293 t-108.5 -186.5t-150.5 -99.5t-166 -30q-137 0 -233.5 40t-158 111t-90 165t-28.5 205zM303 475q0 -135 61.5 -207.5t163.5 -72.5q100 0 164 69.5t64 194.5q0 145 -56.5 224t-169.5 79q-115 0 -171 -77t-56 -210z" />
<glyph unicode="&#xf1;" horiz-adv-x="1019" d="M53 0v1008h254v-148q47 86 125 130t201 44q72 0 133 -21.5t105 -64.5t70 -105.5t26 -144.5v-698h-269v610q0 117 -38.5 158t-133.5 41q-207 0 -207 -231v-578h-266zM176 1257q33 100 84.5 140.5t114.5 40.5q47 0 84 -15.5t69.5 -34t61.5 -34t57 -15.5q18 0 45 21.5 t37 75.5l154 -56q-35 -111 -96.5 -155.5t-126.5 -44.5q-39 0 -73 14t-64.5 31.5t-61.5 32t-63 14.5q-12 0 -37 -16.5t-43 -73.5z" />
<glyph unicode="&#xf2;" horiz-adv-x="1093" d="M31 504q0 119 35.5 217t103.5 167.5t163 107.5t216 38q119 0 213 -38t160.5 -106.5t102.5 -166.5t36 -219t-36 -218.5t-102.5 -167t-161.5 -107.5t-212 -38q-123 0 -219.5 39t-163 108.5t-101 168t-34.5 215.5zM225 1327l97 168l424 -248l-64 -112zM305 504 q0 -307 244 -307t244 307q0 305 -244 305t-244 -305z" />
<glyph unicode="&#xf3;" horiz-adv-x="1093" d="M31 504q0 119 35.5 217t103.5 167.5t163 107.5t216 38q119 0 213 -38t160.5 -106.5t102.5 -166.5t36 -219t-36 -218.5t-102.5 -167t-161.5 -107.5t-212 -38q-123 0 -219.5 39t-163 108.5t-101 168t-34.5 215.5zM305 504q0 -307 244 -307t244 307q0 305 -244 305 t-244 -305zM348 1247l424 248l97 -168l-457 -192z" />
<glyph unicode="&#xf4;" horiz-adv-x="1093" d="M31 504q0 119 35.5 217t103.5 167.5t163 107.5t216 38q119 0 213 -38t160.5 -106.5t102.5 -166.5t36 -219t-36 -218.5t-102.5 -167t-161.5 -107.5t-212 -38q-123 0 -219.5 39t-163 108.5t-101 168t-34.5 215.5zM176 1253l263 275h217l262 -275l-94 -104l-277 242 l-276 -242zM305 504q0 -307 244 -307t244 307q0 305 -244 305t-244 -305z" />
<glyph unicode="&#xf5;" horiz-adv-x="1093" d="M31 504q0 119 35.5 217t103.5 167.5t163 107.5t216 38q119 0 213 -38t160.5 -106.5t102.5 -166.5t36 -219t-36 -218.5t-102.5 -167t-161.5 -107.5t-212 -38q-123 0 -219.5 39t-163 108.5t-101 168t-34.5 215.5zM192 1257q33 100 84.5 140.5t114.5 40.5q47 0 84 -15.5 t69.5 -34t61.5 -34t57 -15.5q18 0 45 21.5t37 75.5l154 -56q-35 -111 -96.5 -155.5t-126.5 -44.5q-39 0 -73 14t-64.5 31.5t-61.5 32t-63 14.5q-12 0 -37 -16.5t-43 -73.5zM305 504q0 -307 244 -307t244 307q0 305 -244 305t-244 -305z" />
<glyph unicode="&#xf6;" horiz-adv-x="1093" d="M31 504q0 119 35.5 217t103.5 167.5t163 107.5t216 38q119 0 213 -38t160.5 -106.5t102.5 -166.5t36 -219t-36 -218.5t-102.5 -167t-161.5 -107.5t-212 -38q-123 0 -219.5 39t-163 108.5t-101 168t-34.5 215.5zM208 1186v254h267v-254h-267zM305 504q0 -307 244 -307 t244 307q0 305 -244 305t-244 -305zM618 1186v254h266v-254h-266z" />
<glyph unicode="&#xf7;" horiz-adv-x="1060" d="M47 606v193h965v-193h-965zM387 129v276h285v-276h-285zM387 1004v276h285v-276h-285z" />
<glyph unicode="&#xf8;" horiz-adv-x="1093" d="M31 504q0 119 35.5 217t103.5 167.5t163 107.5t216 38q41 0 81 -5t75 -15l47 102l129 -53l-47 -102q109 -66 168 -182.5t59 -274.5q0 -121 -36 -218.5t-102.5 -167t-161.5 -107.5t-212 -38q-43 0 -84 5.5t-78 15.5l-49 -111l-121 54l47 106q-113 66 -173 185.5t-60 275.5 zM305 504q0 -158 64 -234l239 533q-14 2 -28.5 4t-30.5 2q-244 0 -244 -305zM483 203q31 -6 66 -6q244 0 244 307q0 152 -64 231z" />
<glyph unicode="&#xf9;" horiz-adv-x="1013" d="M53 344v664h266v-623q0 -188 170 -188q102 0 154.5 64.5t52.5 164.5v582h265v-1008h-252v141q-102 -168 -314 -168q-76 0 -138 27t-107.5 76t-71 116.5t-25.5 151.5zM184 1327l97 168l424 -248l-64 -112z" />
<glyph unicode="&#xfa;" horiz-adv-x="1013" d="M53 344v664h266v-623q0 -188 170 -188q102 0 154.5 64.5t52.5 164.5v582h265v-1008h-252v141q-102 -168 -314 -168q-76 0 -138 27t-107.5 76t-71 116.5t-25.5 151.5zM307 1247l424 248l97 -168l-457 -192z" />
<glyph unicode="&#xfb;" horiz-adv-x="1013" d="M53 344v664h266v-623q0 -188 170 -188q102 0 154.5 64.5t52.5 164.5v582h265v-1008h-252v141q-102 -168 -314 -168q-76 0 -138 27t-107.5 76t-71 116.5t-25.5 151.5zM135 1253l263 275h217l262 -275l-94 -104l-277 242l-276 -242z" />
<glyph unicode="&#xfc;" horiz-adv-x="1013" d="M53 344v664h266v-623q0 -188 170 -188q102 0 154.5 64.5t52.5 164.5v582h265v-1008h-252v141q-102 -168 -314 -168q-76 0 -138 27t-107.5 76t-71 116.5t-25.5 151.5zM188 1186v254h267v-254h-267zM598 1186v254h266v-254h-266z" />
<glyph unicode="&#xfd;" horiz-adv-x="1013" d="M53 -55h248q0 -90 52.5 -141.5t156.5 -51.5q37 0 69.5 15.5t58.5 43t41 68.5t15 90v164q-29 -68 -103.5 -105.5t-168.5 -37.5q-80 0 -147.5 25.5t-116.5 73.5t-77 114.5t-28 150.5v654h266v-615q0 -188 170 -188q92 0 148.5 53t56.5 135v615h267v-1035q0 -106 -36 -190 t-98.5 -141.5t-147.5 -88t-181 -30.5q-223 0 -334 112.5t-111 309.5zM307 1247l424 248l97 -168l-457 -192z" />
<glyph unicode="&#xfe;" horiz-adv-x="1060" d="M53 -477v1853h262v-493q41 80 105.5 115.5t171.5 35.5q111 0 192.5 -44t137 -118.5t82 -172t26.5 -203.5q0 -115 -27.5 -211.5t-81 -165t-131 -107.5t-176.5 -39q-92 0 -173 36t-126 118v-604h-262zM303 479q0 -63 16.5 -116.5t47 -91.5t71.5 -59.5t90 -21.5 q100 0 164 85t64 221q0 311 -230 311q-223 0 -223 -328z" />
<glyph unicode="&#xff;" horiz-adv-x="1013" d="M53 -55h248q0 -90 52.5 -141.5t156.5 -51.5q37 0 69.5 15.5t58.5 43t41 68.5t15 90v164q-29 -68 -103.5 -105.5t-168.5 -37.5q-80 0 -147.5 25.5t-116.5 73.5t-77 114.5t-28 150.5v654h266v-615q0 -188 170 -188q92 0 148.5 53t56.5 135v615h267v-1035q0 -106 -36 -190 t-98.5 -141.5t-147.5 -88t-181 -30.5q-223 0 -334 112.5t-111 309.5zM168 1186v254h267v-254h-267zM578 1186v254h266v-254h-266z" />
<glyph unicode="&#x152;" horiz-adv-x="2091" d="M31 715q0 152 47 278.5t133 218t207 142.5t268 51q106 0 199.5 -29.5t171.5 -83.5v68h999v-238h-723v-291h666v-239h-666v-350h758v-242h-1034v49q-72 -47 -162 -71.5t-195 -24.5q-162 0 -286.5 52t-209.5 150.5t-129 240t-44 319.5zM311 696q0 -104 29 -195t81 -159 t125 -106.5t161 -38.5q76 0 140 33.5t109 95t71 145.5t26 184q0 498 -377 498q-84 0 -151.5 -34t-115 -95t-73 -145t-25.5 -183z" />
<glyph unicode="&#x153;" horiz-adv-x="1761" d="M31 504q0 119 35.5 217t103.5 167.5t163 107.5t216 38q113 0 203 -33.5t155 -97.5q63 63 151.5 97t201.5 34q233 0 353 -149.5t120 -450.5h-695q6 -115 66.5 -182.5t159.5 -67.5q66 0 116 30t64 83h274q-47 -156 -163.5 -240t-278.5 -84q-246 0 -371 129 q-135 -129 -356 -129q-123 0 -219.5 39t-163 108.5t-101 168t-34.5 215.5zM305 504q0 -307 244 -307t244 307q0 305 -244 305t-244 -305zM1047 602h411q-2 55 -19.5 97t-46 70t-65.5 41t-76 13q-80 0 -138 -58t-66 -163z" />
<glyph unicode="&#x178;" horiz-adv-x="1222" d="M6 1360h332l287 -553l264 553h328l-455 -850v-510h-285v514zM290 1538v254h267v-254h-267zM700 1538v254h266v-254h-266z" />
<glyph unicode="&#x2c6;" horiz-adv-x="946" d="M102 1253l263 275h217l262 -275l-94 -104l-277 242l-276 -242z" />
<glyph unicode="&#x2dc;" horiz-adv-x="911" d="M102 1257q33 100 84.5 140.5t114.5 40.5q47 0 84 -15.5t69.5 -34t61.5 -34t57 -15.5q18 0 45 21.5t37 75.5l154 -56q-35 -111 -96.5 -155.5t-126.5 -44.5q-39 0 -73 14t-64.5 31.5t-61.5 32t-63 14.5q-12 0 -37 -16.5t-43 -73.5z" />
<glyph unicode="&#x2000;" horiz-adv-x="940" />
<glyph unicode="&#x2001;" horiz-adv-x="1880" />
<glyph unicode="&#x2002;" horiz-adv-x="940" />
<glyph unicode="&#x2003;" horiz-adv-x="1880" />
<glyph unicode="&#x2004;" horiz-adv-x="626" />
<glyph unicode="&#x2005;" horiz-adv-x="470" />
<glyph unicode="&#x2006;" horiz-adv-x="313" />
<glyph unicode="&#x2007;" horiz-adv-x="313" />
<glyph unicode="&#x2008;" horiz-adv-x="235" />
<glyph unicode="&#x2009;" />
<glyph unicode="&#x200a;" horiz-adv-x="104" />
<glyph unicode="&#x2010;" horiz-adv-x="561" d="M27 526v207h508v-207h-508z" />
<glyph unicode="&#x2011;" horiz-adv-x="561" d="M27 526v207h508v-207h-508z" />
<glyph unicode="&#x2012;" horiz-adv-x="561" d="M27 526v207h508v-207h-508z" />
<glyph unicode="&#x2013;" horiz-adv-x="882" d="M27 526v207h829v-207h-829z" />
<glyph unicode="&#x2014;" horiz-adv-x="1253" d="M27 526v207h1200v-207h-1200z" />
<glyph unicode="&#x2018;" d="M47 1206v209h283v-276h-158q2 -98 41 -147.5t117 -69.5v-103q-80 16 -134.5 47t-87 77t-47 111.5t-14.5 151.5z" />
<glyph unicode="&#x2019;" d="M49 819v103q78 20 117 69t41 148h-158v276h283v-209q0 -86 -14.5 -151.5t-47 -111.5t-87 -76.5t-134.5 -47.5z" />
<glyph unicode="&#x201a;" horiz-adv-x="399" d="M61 0v276h283v-208q0 -86 -14.5 -152t-47 -112t-87 -76.5t-134.5 -46.5v102q78 20 117 69.5t41 147.5h-158z" />
<glyph unicode="&#x201c;" horiz-adv-x="753" d="M47 1206v209h283v-276h-158q2 -98 41 -147.5t117 -69.5v-103q-80 16 -134.5 47t-87 77t-47 111.5t-14.5 151.5zM424 1206v209h283v-276h-158q2 -98 41 -147.5t117 -69.5v-103q-80 16 -134.5 47t-87 77t-47 111.5t-14.5 151.5z" />
<glyph unicode="&#x201d;" horiz-adv-x="753" d="M49 819v103q78 20 117 69t41 148h-158v276h283v-209q0 -86 -14.5 -151.5t-47 -111.5t-87 -76.5t-134.5 -47.5zM426 819v103q78 20 117 69t41 148h-158v276h283v-209q0 -86 -14.5 -151.5t-47 -111.5t-87 -76.5t-134.5 -47.5z" />
<glyph unicode="&#x201e;" horiz-adv-x="798" d="M61 0v276h283v-208q0 -86 -14.5 -152t-47 -112t-87 -76.5t-134.5 -46.5v102q78 20 117 69.5t41 147.5h-158zM460 0v276h283v-208q0 -86 -14.5 -152t-47 -112t-87 -76.5t-134.5 -46.5v102q78 20 117 69.5t41 147.5h-158z" />
<glyph unicode="&#x2022;" horiz-adv-x="856" d="M92 702q0 63 25.5 117.5t70.5 93.5t106.5 60.5t133.5 21.5q70 0 130 -21.5t105.5 -60.5t71 -93.5t25.5 -117.5q0 -61 -25.5 -114t-71 -92t-105.5 -61.5t-130 -22.5q-72 0 -133.5 22.5t-106.5 61.5t-70.5 92t-25.5 114z" />
<glyph unicode="&#x2026;" horiz-adv-x="1884" d="M47 0v276h285v-276h-285zM801 0v276h285v-276h-285zM1554 0v276h285v-276h-285z" />
<glyph unicode="&#x202f;" />
<glyph unicode="&#x2039;" horiz-adv-x="475" d="M27 649l292 357l130 -140l-193 -217l193 -215l-130 -137z" />
<glyph unicode="&#x203a;" horiz-adv-x="475" d="M27 434l192 215l-192 217l129 140l293 -357l-293 -352z" />
<glyph unicode="&#x205f;" horiz-adv-x="470" />
<glyph unicode="&#x20ac;" horiz-adv-x="1271" d="M18 424l37 156h58q-2 20 -2 40.5v43.5v34.5t2 30.5h-95l37 160h76q66 244 215.5 380t396.5 136q102 0 188.5 -26.5t166.5 -75.5l-131 -240q-41 49 -101.5 72.5t-120.5 23.5q-117 0 -198.5 -70.5t-120.5 -199.5h448l-83 -160h-394q0 -41 1 -84t5 -65h306l-84 -156h-183 q43 -106 116 -164.5t171 -58.5q188 0 266 139l238 -133q-78 -119 -206 -186.5t-288 -67.5q-106 0 -203.5 29.5t-176 89t-136 147.5t-86.5 205h-119z" />
<glyph unicode="&#x2122;" horiz-adv-x="948" d="M31 1255v105h377v-105h-132v-421h-110v421h-135zM455 836v524h127l100 -270l98 270h123v-526h-106v290l-113 -290l-125 303v-301h-104z" />
<glyph unicode="&#x25fc;" horiz-adv-x="1003" d="M0 0v1004h1004v-1004h-1004z" />
<glyph unicode="&#xfb01;" horiz-adv-x="958" d="M8 819v189h150q0 174 102 271t305 97h346v-248h-307q-49 0 -84 -2t-57.5 -14t-32.5 -36.5t-10 -67.5h172v-189h-172v-819h-262v819h-150zM645 0v1008h266v-1008h-266z" />
<glyph unicode="&#xfb02;" horiz-adv-x="964" d="M8 819v189h150q0 369 428 368v-215q-51 0 -83 -7t-50.5 -25.5t-25.5 -48t-7 -72.5h225v368h266v-1376h-266v819h-225v-819h-262v819h-150z" />
</font>
</defs>
</svg>
